<?xml version="1.0" standalone="no"?><!DOCTYPE svg PUBLIC "-//W3C//DTD SVG 1.1//EN"
        "http://www.w3.org/Graphics/SVG/1.1/DTD/svg11.dtd">
<svg t="1684237813163" class="icon" viewBox="0 0 1024 1024" version="1.1" xmlns="http://www.w3.org/2000/svg" p-id="5072"
     xmlns:xlink="http://www.w3.org/1999/xlink" width="15" height="15">
    <path d="M902.981818 1019.345455H121.018182c-65.163636 0-116.363636-51.2-116.363637-116.363637V121.018182C4.654545 55.854545 55.854545 4.654545 121.018182 4.654545h781.963636c65.163636 0 116.363636 51.2 116.363637 116.363637v781.963636c0 60.509091-51.2 116.363636-116.363637 116.363637zM121.018182 88.436364c-18.618182 0-32.581818 13.963636-32.581818 32.581818v781.963636c0 18.618182 13.963636 32.581818 32.581818 32.581818h781.963636c18.618182 0 32.581818-13.963636 32.581818-32.581818V121.018182c0-18.618182-13.963636-32.581818-32.581818-32.581818H121.018182z"
          fill="#2c2c2c" p-id="5073"></path>
</svg>