<?xml version="1.0" standalone="no"?><!DOCTYPE svg PUBLIC "-//W3C//DTD SVG 1.1//EN"
        "http://www.w3.org/Graphics/SVG/1.1/DTD/svg11.dtd">
<svg class="icon" width="20px" height="20px" viewBox="0 0 1024 1024" version="1.1"
     xmlns="http://www.w3.org/2000/svg">
    <path fill="#333333"
          d="M581.87916231 511.6132791l239.91469145-239.89731073c19.2730397-19.2737639 19.2730397-50.63581467 0-69.90885437-9.34720337-9.34720337-21.76210284-14.49479162-34.95623768-14.49479163s-25.60758591 5.14758826-34.95261669 14.49479163L511.96958375 441.70370054 272.07082463 201.80638981c-9.34647918-9.34647918-21.76065444-14.49479162-34.95406509-14.49479163s-25.60686171 5.14758826-34.95478928 14.49479163c-9.34720337 9.34720337-14.49551582 21.76137865-14.49551582 34.95478929s5.14903665 25.60758591 14.49551582 34.95551346l239.9045527 239.8849994L202.16269445 751.48524297c-9.34720337 9.34647918-14.49624002 21.76210284-14.49624001 34.95696187s5.14903665 25.60831011 14.49479162 34.95551348c9.33851301 9.33996142 21.75196409 14.48392868 34.95334089 14.48392867 13.24989795 0 25.66986681-5.14903665 34.95696187-14.48175609L511.9782741 581.51054633 751.88282681 821.39844252c9.33634042 9.33996142 21.74906731 14.48392868 34.95478928 14.48392867 13.22455108 0 25.6293118-5.14903665 34.91640687-14.48175609 9.34647918-9.34865177 14.49479162-21.76355123 14.49479162-34.95841026s-5.14758826-25.60831011-14.49479162-34.95623767L581.87916231 511.6132791z"/>
</svg>