<?xml version="1.0" standalone="no"?><!DOCTYPE svg PUBLIC "-//W3C//DTD SVG 1.1//EN"
        "http://www.w3.org/Graphics/SVG/1.1/DTD/svg11.dtd">
<svg t="1684280335920" class="icon" viewBox="0 0 1024 1024" version="1.1" xmlns="http://www.w3.org/2000/svg" p-id="3337"
     xmlns:xlink="http://www.w3.org/1999/xlink" width="20" height="20">
    <path d="M260.56 801.28c-23.74 0-45.92-8.18-61.88-23.36-20.24-19.08-29.98-47.88-26.46-79.02l14.4-126.12c2.72-23.74 17.12-55.28 33.86-72.4L540.02 162.14c79.8-84.46 163.1-86.8 247.56-7 84.46 79.8 86.8 163.08 7 247.56L475.02 740.94c-16.34 17.52-46.7 33.86-70.46 37.76l-125.34 21.4c-6.6 0.4-12.44 1.18-18.66 1.18z m404.4-646.52c-29.98 0-56.06 18.68-82.52 46.7L262.88 540.1c-7.78 8.18-16.74 27.64-18.3 38.92l-14.4 126.12c-1.56 12.84 1.56 23.36 8.56 29.98 7 6.62 17.52 8.96 30.36 7l125.34-21.4c11.28-1.94 29.98-12.06 37.76-20.24l319.56-338.24c48.26-51.38 65.78-98.86-4.68-165.04-31.12-29.98-57.98-42.44-82.12-42.44z"
          fill="#292D32" p-id="3338"></path>
    <path d="M719.86 467.7h-2.72c-121.44-12.06-219.14-104.32-237.82-224.98-2.34-15.96 8.56-30.76 24.52-33.48 15.96-2.34 30.76 8.56 33.48 24.52 14.8 94.2 91.08 166.6 186.06 175.94 15.96 1.56 27.64 15.96 26.08 31.92-1.98 14.8-14.82 26.08-29.6 26.08z"
          fill="#292D32" p-id="3339"></path>
    <path d="M862.32 927H161.68c-15.96 0-29.2-13.24-29.2-29.2s13.24-29.2 29.2-29.2h700.62c15.96 0 29.2 13.24 29.2 29.2s-13.22 29.2-29.18 29.2z"
          fill="#F7931E" p-id="3340"></path>
</svg>