<?xml version="1.0" standalone="no"?><!DOCTYPE svg PUBLIC "-//W3C//DTD SVG 1.1//EN"
        "http://www.w3.org/Graphics/SVG/1.1/DTD/svg11.dtd">
<svg t="1684559538558" class="icon" viewBox="0 0 1024 1024" version="1.1" xmlns="http://www.w3.org/2000/svg" p-id="4205"
     xmlns:xlink="http://www.w3.org/1999/xlink" width="30px" height="30px">
    <path d="M217.884444 144.497778c-32.426667 0-58.88 26.168889-58.88 58.595555v676.693334c0 32.426667 26.453333 58.595556 58.88 58.595555h587.946667c32.426667 0 58.88-26.168889 58.88-58.595555V203.093333c0-32.426667-26.453333-58.595556-58.88-58.595555h-88.177778l29.297778 29.297778V129.706667c0-24.177778-19.626667-44.088889-44.088889-44.088889H320.853333c-24.177778 0-44.088889 19.626667-44.088889 44.088889v44.088889l29.297778-29.297778h-88.177778z m117.76 58.595555V129.706667c0 8.248889-6.542222 14.791111-14.791111 14.791111h382.293334c-8.248889 0-14.791111-6.542222-14.791111-14.506667v73.671111h117.475555v676.408889H217.884444V203.662222h88.177778l29.582222-0.568889z m352.711112 14.791111c0-8.248889 6.542222-14.791111 14.791111-14.791111H320.853333c8.248889 0 14.791111 6.542222 14.791111 14.506667V173.795556c0-16.213333-13.084444-29.297778-29.297777-29.297778-16.213333 0-29.297778 13.084444-29.297778 29.297778v44.088888c0 24.177778 19.626667 44.088889 44.088889 44.088889h382.293333c24.177778 0 44.088889-19.626667 44.088889-43.804444V173.795556c-0.284444-16.213333-13.653333-29.297778-29.866667-29.013334-15.928889 0.284444-28.728889 13.084444-29.013333 29.013334v44.088888z m0 235.235556c16.213333 0 29.297778-13.084444 29.297777-29.297778 0-16.213333-13.084444-29.297778-29.297777-29.297778H335.644444c-16.213333 0-29.297778 13.084444-29.297777 29.297778 0 16.213333 13.084444 29.297778 29.297777 29.297778h352.711112z m-352.711112 88.177778c-16.213333 0-29.297778 13.084444-29.297777 29.297778s13.084444 29.297778 29.297777 29.297777h352.711112c16.213333 0 29.297778-13.084444 29.297777-29.297777s-13.084444-29.297778-29.297777-29.297778H335.644444z m0 147.057778c-16.213333 0-29.297778 13.084444-29.297777 29.297777 0 16.213333 13.084444 29.297778 29.297777 29.297778h235.235556c16.213333 0 29.297778-13.084444 29.297778-29.297778 0-16.213333-13.084444-29.297778-29.297778-29.297777H335.644444z"
          p-id="4206"></path>
</svg>