<?xml version="1.0" standalone="no"?><!DOCTYPE svg PUBLIC "-//W3C//DTD SVG 1.1//EN" "http://www.w3.org/Graphics/SVG/1.1/DTD/svg11.dtd"><svg class="icon" width="200px" height="200.00px" viewBox="0 0 1024 1024" version="1.1" xmlns="http://www.w3.org/2000/svg"><path fill="#333333" d="M806.574415 366.530317c-18.739692 0-33.912069 15.172377-33.91207 33.91207v429.613088H136.596552V193.944525h429.567932c18.739692 0 33.912069-15.172377 33.912069-33.912069s-15.172377-33.912069-33.912069-33.91207H102.684482c-18.739692 0-33.912069 15.172377-33.912069 33.91207v703.980244c0 18.739692 15.172377 33.912069 33.912069 33.91207h703.844777c18.739692 0 33.912069-15.172377 33.912069-33.91207V400.442387c0.045156-18.739692-15.172377-33.912069-33.866913-33.91207zM319.568197 647.219297c6.637915 6.637915 15.353001 9.979451 24.068086 9.979451 8.715086 0 17.430172-3.341535 24.068087-9.979451L830.642501 184.145698c13.27583-13.27583 13.27583-34.815187 0-48.136173-13.27583-13.27583-34.815187-13.27583-48.091017 0L319.568197 599.12828c-13.27583 13.27583-13.27583 34.815187 0 48.091017z" /></svg>